<svg width="16" height="16" viewBox="0 0 16 16" fill="none" xmlns="http://www.w3.org/2000/svg">
<path d="M9.62956 4.70572L5.23671 7.8843C5.21845 7.89745 5.20359 7.91475 5.19333 7.93478C5.18308 7.9548 5.17773 7.97698 5.17773 7.99947C5.17773 8.02197 5.18308 8.04415 5.19333 8.06417C5.20359 8.0842 5.21845 8.1015 5.23671 8.11465L9.62956 11.2932C9.72421 11.3611 9.85635 11.2932 9.85635 11.1772V10.3397C9.85635 10.1575 9.76885 9.98429 9.62064 9.87715L7.02421 8.00037L9.62064 6.12179C9.76885 6.01465 9.85635 5.84322 9.85635 5.65929V4.82179C9.85635 4.70572 9.72421 4.63787 9.62956 4.70572Z" fill="#0B0B0B"/>
<path d="M8 0C3.58214 0 0 3.58214 0 8C0 12.4179 3.58214 16 8 16C12.4179 16 16 12.4179 16 8C16 3.58214 12.4179 0 8 0ZM8 14.6429C4.33214 14.6429 1.35714 11.6679 1.35714 8C1.35714 4.33214 4.33214 1.35714 8 1.35714C11.6679 1.35714 14.6429 4.33214 14.6429 8C14.6429 11.6679 11.6679 14.6429 8 14.6429Z" fill="#0B0B0B"/>
</svg>
