<svg width="25" height="25" viewBox="0 0 25 25" fill="none" xmlns="http://www.w3.org/2000/svg">
<path d="M23.6429 5.72727H19.3571V4.21591C19.3571 4.09716 19.2607 4 19.1429 4H17.6429C17.525 4 17.4286 4.09716 17.4286 4.21591V5.72727H13.4643V4.21591C13.4643 4.09716 13.3679 4 13.25 4H11.75C11.6321 4 11.5357 4.09716 11.5357 4.21591V5.72727H7.57143V4.21591C7.57143 4.09716 7.475 4 7.35714 4H5.85714C5.73929 4 5.64286 4.09716 5.64286 4.21591V5.72727H1.35714C0.883036 5.72727 0.5 6.11321 0.5 6.59091V22.1364C0.5 22.6141 0.883036 23 1.35714 23H23.6429C24.117 23 24.5 22.6141 24.5 22.1364V6.59091C24.5 6.11321 24.117 5.72727 23.6429 5.72727ZM22.5714 21.0568H2.42857V7.67045H5.64286V9.18182C5.64286 9.30057 5.73929 9.39773 5.85714 9.39773H7.35714C7.475 9.39773 7.57143 9.30057 7.57143 9.18182V7.67045H11.5357V9.18182C11.5357 9.30057 11.6321 9.39773 11.75 9.39773H13.25C13.3679 9.39773 13.4643 9.30057 13.4643 9.18182V7.67045H17.4286V9.18182C17.4286 9.30057 17.525 9.39773 17.6429 9.39773H19.1429C19.2607 9.39773 19.3571 9.30057 19.3571 9.18182V7.67045H22.5714V21.0568ZM9.92857 13.0682H5C4.88214 13.0682 4.78571 13.1653 4.78571 13.2841V14.5795C4.78571 14.6983 4.88214 14.7955 5 14.7955H9.92857C10.0464 14.7955 10.1429 14.6983 10.1429 14.5795V13.2841C10.1429 13.1653 10.0464 13.0682 9.92857 13.0682ZM9.92857 16.7386H5C4.88214 16.7386 4.78571 16.8358 4.78571 16.9545V18.25C4.78571 18.3688 4.88214 18.4659 5 18.4659H9.92857C10.0464 18.4659 10.1429 18.3688 10.1429 18.25V16.9545C10.1429 16.8358 10.0464 16.7386 9.92857 16.7386ZM18.1839 11.9509L15.4089 15.8291L13.9946 13.8563C13.9143 13.7429 13.7857 13.6781 13.6491 13.6781H12.1786C12.0045 13.6781 11.9027 13.8778 12.0045 14.0209L15.0607 18.2905C15.1002 18.3457 15.1521 18.3906 15.2122 18.4216C15.2722 18.4526 15.3388 18.4687 15.4062 18.4687C15.4737 18.4687 15.5403 18.4526 15.6003 18.4216C15.6604 18.3906 15.7123 18.3457 15.7518 18.2905L20.1714 12.1182C20.2732 11.9751 20.1714 11.7754 19.9973 11.7754H18.5268C18.3929 11.7727 18.2643 11.8402 18.1839 11.9509Z" fill="#28303D"/>
</svg>
