<svg width="56" height="56" viewBox="0 0 56 56" fill="none" xmlns="http://www.w3.org/2000/svg">
<path d="M51.2143 12.5455H42.2857V9.44318C42.2857 9.19943 42.0848 9 41.8393 9H38.7143C38.4688 9 38.2679 9.19943 38.2679 9.44318V12.5455H30.0089V9.44318C30.0089 9.19943 29.808 9 29.5625 9H26.4375C26.192 9 25.9911 9.19943 25.9911 9.44318V12.5455H17.7321V9.44318C17.7321 9.19943 17.5312 9 17.2857 9H14.1607C13.9152 9 13.7143 9.19943 13.7143 9.44318V12.5455H4.78571C3.79799 12.5455 3 13.3376 3 14.3182V46.2273C3 47.2078 3.79799 48 4.78571 48H51.2143C52.202 48 53 47.2078 53 46.2273V14.3182C53 13.3376 52.202 12.5455 51.2143 12.5455ZM48.9821 44.0114H7.01786V16.5341H13.7143V19.6364C13.7143 19.8801 13.9152 20.0795 14.1607 20.0795H17.2857C17.5312 20.0795 17.7321 19.8801 17.7321 19.6364V16.5341H25.9911V19.6364C25.9911 19.8801 26.192 20.0795 26.4375 20.0795H29.5625C29.808 20.0795 30.0089 19.8801 30.0089 19.6364V16.5341H38.2679V19.6364C38.2679 19.8801 38.4688 20.0795 38.7143 20.0795H41.8393C42.0848 20.0795 42.2857 19.8801 42.2857 19.6364V16.5341H48.9821V44.0114ZM22.6429 27.6136H12.375C12.1295 27.6136 11.9286 27.8131 11.9286 28.0568V30.7159C11.9286 30.9597 12.1295 31.1591 12.375 31.1591H22.6429C22.8884 31.1591 23.0893 30.9597 23.0893 30.7159V28.0568C23.0893 27.8131 22.8884 27.6136 22.6429 27.6136ZM22.6429 35.1477H12.375C12.1295 35.1477 11.9286 35.3472 11.9286 35.5909V38.25C11.9286 38.4937 12.1295 38.6932 12.375 38.6932H22.6429C22.8884 38.6932 23.0893 38.4937 23.0893 38.25V35.5909C23.0893 35.3472 22.8884 35.1477 22.6429 35.1477ZM39.8415 25.3202L34.0603 33.2808L31.1138 29.2313C30.9464 28.9986 30.6786 28.8656 30.394 28.8656H27.3304C26.9676 28.8656 26.7556 29.2756 26.9676 29.5692L33.3348 38.3331C33.417 38.4463 33.5252 38.5386 33.6503 38.6022C33.7755 38.6658 33.9141 38.699 34.0547 38.699C34.1953 38.699 34.3339 38.6658 34.4591 38.6022C34.5842 38.5386 34.6924 38.4463 34.7746 38.3331L43.9821 25.6636C44.1942 25.37 43.9821 24.9601 43.6194 24.9601H40.5558C40.2768 24.9545 40.0089 25.093 39.8415 25.3202Z" fill="white"/>
</svg>
